<svg width="800" height="800" viewBox="0 0 800 800" fill="none" xmlns="http://www.w3.org/2000/svg">
  <g opacity="0.3">
    <path d="M435.5 190.5C504.5 159.5 544 92 544 92C544 92 590.5 35 652.5 56C714.5 77 726 135.5 726 135.5C726 135.5 742 204.5 690 245C638 285.5 570.5 259 570.5 259C570.5 259 517 241.5 488 290.5C459 339.5 483.5 391 483.5 391C483.5 391 505 445 465 487.5C425 530 366.5 518 366.5 518C366.5 518 308 506.5 290.5 452.5C273 398.5 312.5 350 312.5 350C312.5 350 352.5 301 324 252C295.5 203 240.5 198.5 240.5 198.5C240.5 198.5 183 194 150.5 146C118 98 132.5 40 132.5 40C132.5 40 147 -18 205 -29.5C263 -41 304 4 304 4C304 4 366.5 59.5 366.5 126.5C366.5 193.5 366.5 221.5 435.5 190.5Z" fill="url(#paint0_linear_1_2)"/>
  </g>
  <defs>
    <linearGradient id="paint0_linear_1_2" x1="132.5" y1="-29.5" x2="726" y2="518" gradientUnits="userSpaceOnUse">
      <stop stop-color="#8A4FFF"/>
      <stop offset="1" stop-color="#FF4FC4"/>
    </linearGradient>
  </defs>
</svg>